<?xml version="1.0" encoding="UTF-8" standalone="no"?>
<svg
   id="Layer_1"
   data-name="Layer 1"
   viewBox="0 0 204 120"
   version="1.1"
   sodipodi:docname="logo-02.white.svg"
   inkscape:version="1.4 (86a8ad7, 2024-10-11)"
   xmlns:inkscape="http://www.inkscape.org/namespaces/inkscape"
   xmlns:sodipodi="http://sodipodi.sourceforge.net/DTD/sodipodi-0.dtd"
   xmlns="http://www.w3.org/2000/svg"
   xmlns:svg="http://www.w3.org/2000/svg">
  <defs
     id="defs7" />
  <sodipodi:namedview
     id="namedview7"
     pagecolor="#505050"
     bordercolor="#eeeeee"
     borderopacity="1"
     inkscape:showpageshadow="0"
     inkscape:pageopacity="0"
     inkscape:pagecheckerboard="0"
     inkscape:deskcolor="#505050"
     inkscape:zoom="3.5166667"
     inkscape:cx="67.962085"
     inkscape:cy="77.914692"
     inkscape:window-width="1920"
     inkscape:window-height="1009"
     inkscape:window-x="-8"
     inkscape:window-y="-8"
     inkscape:window-maximized="1"
     inkscape:current-layer="Layer_1" />
  <path
     d="M32.1,60.79A13,13,0,0,1,27,59.86a10.09,10.09,0,0,1-3.62-2.53l-2.15,3.25h-.78V51.1h.9a13,13,0,0,0,1.17,3.48,9.86,9.86,0,0,0,2.09,2.77,9.06,9.06,0,0,0,3.05,1.83,11.54,11.54,0,0,0,4.07.66A10,10,0,0,0,35.92,59a6.25,6.25,0,0,0,2.76-2.41,7.21,7.21,0,0,0,1-3.86,5.77,5.77,0,0,0-1-3.43A9.13,9.13,0,0,0,36,46.89,28.45,28.45,0,0,0,32.4,45c-1.3-.57-2.61-1.18-3.92-1.81A20.69,20.69,0,0,1,24.87,41a9.65,9.65,0,0,1-2.64-3,8.84,8.84,0,0,1-1-4.34,7.83,7.83,0,0,1,1.29-4.48,8.79,8.79,0,0,1,3.47-3,10.81,10.81,0,0,1,4.81-1.07,11.65,11.65,0,0,1,4.2.73A8.86,8.86,0,0,1,38.33,28l2.15-2.93h.76v9.48h-.88a11.56,11.56,0,0,0-1.73-4.76A7.81,7.81,0,0,0,35.47,27a9.57,9.57,0,0,0-4.22-.92,7.17,7.17,0,0,0-5,1.56,5.32,5.32,0,0,0-1.69,4.12,4.92,4.92,0,0,0,1,3.09,9,9,0,0,0,2.6,2.23,32.61,32.61,0,0,0,3.55,1.81q1.93.85,3.87,1.83A19.3,19.3,0,0,1,39.12,43a10.25,10.25,0,0,1,2.59,3.24,9.93,9.93,0,0,1,1,4.63,10.21,10.21,0,0,1-1.29,5.22,8.68,8.68,0,0,1-3.67,3.45A12.08,12.08,0,0,1,32.1,60.79Z"
     id="path1"
     style="fill:#ffffff;fill-opacity:1" />
  <path
     d="M50.05,60.12V37.48H46.34v-.89H51V60.12Zm-3.71,0v-.9h8.49v.9Zm20.35.46-16.36-24h5.31L67.31,52.87V36.59h1v24Zm-3.32-23.1v-.89H72v.89Z"
     id="path2"
     style="fill:#ffffff;fill-opacity:1" />
  <path
     d="M85,36.28,101.84,85h5.1v1.28H88V85h6.7L81.83,45.2,68,85H74.9v1.28H60.51V85h6L83.63,36.28Z"
     id="path3"
     style="fill:#ffffff;fill-opacity:1" />
  <path
     d="M106.16,51.14v-.9H111a4.72,4.72,0,0,0,4.78-3.17,8.83,8.83,0,0,0,.55-3.19,8.94,8.94,0,0,0-.55-3.21,5.07,5.07,0,0,0-1.73-2.32,5,5,0,0,0-3-.87H99.69v-.89H111a17.6,17.6,0,0,1,5.78.81,7,7,0,0,1,3.45,2.44,6.75,6.75,0,0,1,1.15,4,6.74,6.74,0,0,1-1.15,4,6.9,6.9,0,0,1-3.45,2.43,17.89,17.89,0,0,1-5.78.8Zm-6.47,9v-.9H110.1v.9Zm3,0V36.59h4.38V60.12Z"
     id="path4"
     style="fill:#ffffff;fill-opacity:1" />
  <path
     d="M105.09,63.63v-.9H116v.9ZM118,86.94a12.68,12.68,0,0,1-5.4-1,7.24,7.24,0,0,1-3.37-3.19,11.39,11.39,0,0,1-1.15-5.44V62.73h4.38V76.81a17.78,17.78,0,0,0,.31,3.38,9.18,9.18,0,0,0,1,2.89,5.35,5.35,0,0,0,2,2,6.11,6.11,0,0,0,3.14.74,7,7,0,0,0,3.6-.91,5.92,5.92,0,0,0,2.35-2.82,12,12,0,0,0,.83-4.83V62.73h.9V77.27a12.79,12.79,0,0,1-1,5.27,7,7,0,0,1-2.88,3.28A9.35,9.35,0,0,1,118,86.94Zm4.75-23.31v-.9h6.85v.9Z"
     id="path5"
     style="fill:#ffffff;fill-opacity:1" />
  <path
     d="M138.73,74.71v-.53h5.53a4.45,4.45,0,0,0,2.6-.68,3.83,3.83,0,0,0,1.38-1.83,6.94,6.94,0,0,0,.43-2.5,8.06,8.06,0,0,0-.43-2.63,4.58,4.58,0,0,0-1.38-2.09,3.91,3.91,0,0,0-2.6-.82H132.73v-.9h11.53a12.77,12.77,0,0,1,4.92.84,7,7,0,0,1,3,2.3,5.56,5.56,0,0,1,1,3.3,4.58,4.58,0,0,1-2.15,4.15q-2.15,1.4-6.85,1.39Zm-6,11.56v-.9h9.94v.9Zm2.79,0V62.73h4.36V86.27Zm17.51.46a5.86,5.86,0,0,1-3.09-.64,3,3,0,0,1-1.35-1.67,7.18,7.18,0,0,1-.32-2.28c0-.83,0-1.66,0-2.48a7.22,7.22,0,0,0-.35-2.28,3,3,0,0,0-1.39-1.67,6.38,6.38,0,0,0-3.2-.63h-4.61v-.49h5.53a13.21,13.21,0,0,1,4.4.6,5.73,5.73,0,0,1,2.48,1.59A5.51,5.51,0,0,1,152.26,79a11,11,0,0,1,.3,2.39v2.18a4,4,0,0,0,.24,1.6,1,1,0,0,0,1.06.59,2.25,2.25,0,0,0,.84-.14,5.07,5.07,0,0,0,.8-.41l.3.86a7.32,7.32,0,0,1-1.12.49A5.34,5.34,0,0,1,153,86.73Z"
     id="path6"
     style="fill:#ffffff;fill-opacity:1" />
  <path
     d="M155.8,86.27v-.9h7.84v.9Zm2.26,0,10.89-24h1.27l10.61,24h-5.1l-8.12-19.06L159.1,86.27ZM162.14,79v-.9h14.31V79Zm9.32,7.32v-.9H183v.9Z"
     id="path7"
     style="fill:#ffffff;fill-opacity:1" />
  <path
     d="m 26.128436,160.60043 a 13,13 0 0 1 -5.1,-0.93 10.09,10.09 0 0 1 -3.62,-2.53 l -2.15,3.25 h -0.78 v -9.48 h 0.9 a 13,13 0 0 0 1.17,3.48 9.86,9.86 0 0 0 2.09,2.77 9.06,9.06 0 0 0 3.05,1.83 11.54,11.54 0 0 0 4.07,0.66 10,10 0 0 0 4.19,-0.84 6.25,6.25 0 0 0 2.76,-2.41 7.21,7.21 0 0 0 1,-3.86 5.77,5.77 0 0 0 -1,-3.43 9.13,9.13 0 0 0 -2.68,-2.41 28.45,28.45 0 0 0 -3.6,-1.89 c -1.3,-0.57 -2.61,-1.18 -3.92,-1.81 a 20.69,20.69 0 0 1 -3.61,-2.19 9.65,9.65 0 0 1 -2.64,-3 8.84,8.84 0 0 1 -1,-4.34 7.83,7.83 0 0 1 1.29,-4.48 8.79,8.79 0 0 1 3.47,-3 10.81,10.81 0 0 1 4.81,-1.07 11.65,11.65 0 0 1 4.2,0.73 8.86,8.86 0 0 1 3.33,2.16 l 2.15,-2.93 h 0.76 v 9.48 h -0.88 a 11.56,11.56 0 0 0 -1.73,-4.76 7.81,7.81 0 0 0 -3.16,-2.79 9.57,9.57 0 0 0 -4.22,-0.92 7.17,7.17 0 0 0 -5,1.56 5.32,5.32 0 0 0 -1.69,4.12 4.92,4.92 0 0 0 1,3.09 9,9 0 0 0 2.6,2.23 32.61,32.61 0 0 0 3.55,1.81 q 1.93,0.85 3.87,1.83 a 19.3,19.3 0 0 1 3.54,2.28 10.25,10.25 0 0 1 2.59,3.24 9.93,9.93 0 0 1 1,4.63 10.21,10.21 0 0 1 -1.29,5.22 8.68,8.68 0 0 1 -3.67,3.45 12.08,12.08 0 0 1 -5.65,1.25 z"
     id="path8" />
  <path
     d="m 44.078436,159.93043 v -22.64 h -3.71 v -0.89 h 4.66 v 23.53 z m -3.71,0 v -0.9 h 8.49 v 0.9 z m 20.35,0.46 -16.36,-24 h 5.31 l 11.67,16.29 v -16.28 h 1 v 24 z m -3.32,-23.1 v -0.89 h 8.63 v 0.89 z"
     id="path9" />
  <path
     d="m 79.028436,136.09043 16.84,48.72 h 5.100004 v 1.28 H 82.028436 v -1.28 h 6.7 l -12.87,-39.8 -13.83,39.8 h 6.9 v 1.28 h -14.39 v -1.28 h 6 l 17.12,-48.72 z"
     id="path10" />
  <path
     d="m 100.18844,150.95043 v -0.9 h 4.84 a 4.72,4.72 0 0 0 4.78,-3.17 8.83,8.83 0 0 0 0.55,-3.19 8.94,8.94 0 0 0 -0.55,-3.21 5.07,5.07 0 0 0 -1.73,-2.32 5,5 0 0 0 -3,-0.87 H 93.718436 v -0.89 h 11.310004 a 17.6,17.6 0 0 1 5.78,0.81 7,7 0 0 1 3.45,2.44 6.75,6.75 0 0 1 1.15,4 6.74,6.74 0 0 1 -1.15,4 6.9,6.9 0 0 1 -3.45,2.43 17.89,17.89 0 0 1 -5.78,0.8 z m -6.470004,9 v -0.9 h 10.410004 v 0.9 z m 3,0 v -23.55 h 4.380004 v 23.53 z"
     id="path11" />
  <path
     d="m 99.118436,163.44043 v -0.9 h 10.910004 v 0.9 z m 12.910004,23.31 a 12.68,12.68 0 0 1 -5.4,-1 7.24,7.24 0 0 1 -3.37,-3.19 11.39,11.39 0 0 1 -1.15,-5.44 v -14.58 h 4.38 v 14.08 a 17.78,17.78 0 0 0 0.31,3.38 9.18,9.18 0 0 0 1,2.89 5.35,5.35 0 0 0 2,2 6.11,6.11 0 0 0 3.14,0.74 7,7 0 0 0 3.6,-0.91 5.92,5.92 0 0 0 2.35,-2.82 12,12 0 0 0 0.83,-4.83 v -14.53 h 0.9 v 14.54 a 12.79,12.79 0 0 1 -1,5.27 7,7 0 0 1 -2.88,3.28 9.35,9.35 0 0 1 -4.71,1.12 z m 4.75,-23.31 v -0.9 h 6.85 v 0.9 z"
     id="path12" />
  <path
     d="m 132.75844,174.52043 v -0.53 h 5.53 a 4.45,4.45 0 0 0 2.6,-0.68 3.83,3.83 0 0 0 1.38,-1.83 6.94,6.94 0 0 0 0.43,-2.5 8.06,8.06 0 0 0 -0.43,-2.63 4.58,4.58 0 0 0 -1.38,-2.09 3.91,3.91 0 0 0 -2.6,-0.82 h -11.53 v -0.9 h 11.53 a 12.77,12.77 0 0 1 4.92,0.84 7,7 0 0 1 3,2.3 5.56,5.56 0 0 1 1,3.3 4.58,4.58 0 0 1 -2.15,4.15 q -2.15,1.4 -6.85,1.39 z m -6,11.56 v -0.9 h 9.94 v 0.9 z m 2.79,0 v -23.54 h 4.36 v 23.54 z m 17.51,0.46 a 5.86,5.86 0 0 1 -3.09,-0.64 3,3 0 0 1 -1.35,-1.67 7.18,7.18 0 0 1 -0.32,-2.28 c 0,-0.83 0,-1.66 0,-2.48 a 7.22,7.22 0 0 0 -0.35,-2.28 3,3 0 0 0 -1.39,-1.67 6.38,6.38 0 0 0 -3.2,-0.63 h -4.61 v -0.49 h 5.53 a 13.21,13.21 0 0 1 4.4,0.6 5.73,5.73 0 0 1 2.48,1.59 5.51,5.51 0 0 1 1.13,2.22 11,11 0 0 1 0.3,2.39 v 2.18 a 4,4 0 0 0 0.24,1.6 1,1 0 0 0 1.06,0.59 2.25,2.25 0 0 0 0.84,-0.14 5.07,5.07 0 0 0 0.8,-0.41 l 0.3,0.86 a 7.32,7.32 0 0 1 -1.12,0.49 5.34,5.34 0 0 1 -1.68,0.17 z"
     id="path13" />
  <path
     d="m 149.82844,186.08043 v -0.9 h 7.84 v 0.9 z m 2.26,0 10.89,-24 h 1.27 l 10.61,24 h -5.1 l -8.12,-19.06 -8.51,19.06 z m 4.08,-7.27 v -0.9 h 14.31 v 0.9 z m 9.32,7.32 v -0.9 h 11.54 v 0.9 z"
     id="path14" />
</svg>
